<?xml version="1.0" encoding="utf-8"?>
<!-- Uploaded to: SVG Repo, www.svgrepo.com, Generator: SVG Repo Mixer Tools -->
<svg width="800px" height="800px" viewBox="0 0 1024 1024" class="icon"  version="1.1" xmlns="http://www.w3.org/2000/svg"><path d="M66.56 711.972571h598.308571v-272.091428H66.56v272.091428z m0 67.949715v87.478857a36.571429 36.571429 0 0 0 36.571429 36.571428h525.165714a36.571429 36.571429 0 0 0 36.571428-36.571428v-87.478857H66.56z m0-407.917715h598.308571v-46.299428a36.571429 36.571429 0 0 0-16.310857-30.500572l-184.32-121.782857a38.619429 38.619429 0 0 1-13.385143-49.005714 29.915429 29.915429 0 0 1 43.008-12.214857l203.849143 130.340571A73.142857 73.142857 0 0 1 731.428571 304.274286v594.578285a73.142857 73.142857 0 0 1-73.142857 73.142858H73.142857a73.142857 73.142857 0 0 1-73.142857-73.142858V304.274286a73.142857 73.142857 0 0 1 33.865143-61.659429l204.8-130.413714a30.134857 30.134857 0 0 1 43.373714 12.288 38.473143 38.473143 0 0 1-13.531428 49.005714L83.017143 295.424a36.571429 36.571429 0 0 0-16.530286 30.573714v46.08z m165.741714-292.571428c-16.676571 0-30.939429-16.969143-30.939428-36.717714s14.262857-36.717714 30.939428-36.717715h266.825143c16.676571 0 30.939429 16.969143 30.939429 36.717715s-14.262857 36.644571-30.939429 36.644571H232.301714z" fill="#000000" /></svg>